<svg width="36" height="36" viewBox="0 0 36 36" fill="none" xmlns="http://www.w3.org/2000/svg">
<g id="images / lightning">
<path id="Vector" d="M7.67912 15.1511L14.5889 6.51391C16.5551 4.05609 17.5383 2.82718 18.4004 2.69158C19.1467 2.57421 19.9021 2.83918 20.4115 3.39702C21 4.04149 21 5.61527 21 8.76281V11.4C21 12.6601 21 13.2902 21.2452 13.7715C21.461 14.1948 21.8052 14.539 22.2285 14.7548C22.7098 15 23.3399 15 24.6 15H25.5098C27.9076 15 29.1065 15 29.7223 15.4915C30.2578 15.919 30.5693 16.5672 30.5686 17.2524C30.5677 18.0403 29.8188 18.9765 28.3209 20.8489L28.3209 20.8489L21.4111 29.4861C19.4449 31.9439 18.4617 33.1728 17.5996 33.3084C16.8533 33.4258 16.0979 33.1608 15.5885 32.603C15 31.9585 15 30.3847 15 27.2372V24.6C15 23.3399 15 22.7098 14.7548 22.2285C14.539 21.8052 14.1948 21.461 13.7715 21.2452C13.2902 21 12.6601 21 11.4 21H10.4902C8.09242 21 6.89351 21 6.27774 20.5085C5.74221 20.081 5.43067 19.4328 5.43141 18.7476C5.43226 17.9597 6.18121 17.0235 7.6791 15.1511L7.67912 15.1511Z" stroke="url(#paint0_linear_1748_531)" stroke-width="2.25" stroke-linecap="round" stroke-linejoin="round"/>
</g>
<defs>
<linearGradient id="paint0_linear_1748_531" x1="3" y1="2.40001" x2="33.113" y2="2.5316" gradientUnits="userSpaceOnUse">
<stop stop-color="#4B2828"/>
<stop offset="1" stop-color="#E0696C"/>
</linearGradient>
</defs>
</svg>
