<svg width="40" height="40" viewBox="0 0 40 40" fill="none" xmlns="http://www.w3.org/2000/svg">
<g id="Group 1000000793">
<g id="Calque 2">
<g id="22- Ticket">
<path id="Vector" d="M39.2904 12.2559L27.3046 30.2931L25.8326 32.5089L22.5739 37.414C21.2002 39.4238 18.5621 40.3094 16.1489 39.5708L15.7411 39.446C15.6906 39.4313 15.6477 39.3976 15.6214 39.3519L13.4561 35.5214L13.639 35.4299C13.671 35.4142 13.6978 35.3898 13.7166 35.3596C13.7354 35.3294 13.7454 35.2945 13.7454 35.2589C13.7454 35.2234 13.7354 35.1885 13.7166 35.1583C13.6978 35.1281 13.671 35.1037 13.639 35.088C13.3397 34.9341 13.028 34.8055 12.7073 34.7033C9.23318 33.5792 7.02169 35.9625 6.57033 36.5096C6.543 36.5416 6.5069 36.5648 6.46649 36.5765C6.42608 36.5882 6.38313 36.5878 6.34294 36.5754L3.70404 35.8317C2.5423 35.5034 1.63446 34.6452 1.29166 33.5501L0.317139 30.4368L23.3381 3.44587C23.3711 3.4106 23.4148 3.38726 23.4625 3.37953C23.5101 3.37179 23.559 3.38009 23.6014 3.40313L26.9524 5.24104C26.9805 5.25588 27.0045 5.27734 27.0224 5.30355C27.0402 5.32977 27.0514 5.35996 27.055 5.3915C27.1029 5.85482 27.4824 7.84319 30.5009 8.9032C33.9279 10.1077 37.5286 5.30516 37.5286 5.30516L39.4579 8.95962C39.7312 9.47271 39.8599 10.0504 39.8304 10.631C39.8009 11.2115 39.6143 11.7732 39.2904 12.2559Z" fill="#F78587"/>
<path id="Vector_2" d="M37.3498 8.66476L25.1392 26.531L23.6235 28.7493L20.3692 33.51C18.9954 35.5197 16.3574 36.4053 13.9433 35.6676L13.456 35.518C13.456 35.518 14.4203 32.0576 10.5051 30.7941C6.5899 29.5307 4.28011 32.715 4.28011 32.715L2.03272 32.0311C0.330719 31.5071 -0.366835 29.5974 0.633334 28.2005L4.67675 22.5526L6.25138 20.3531L19.3707 2.0303C20.482 0.480467 22.5396 -0.198281 24.4331 0.362498L26.094 0.854889C26.094 0.854889 24.8597 3.79556 28.291 5.00003C31.7224 6.20451 34.8733 3.45447 34.8733 3.45447L35.4102 3.61348C37.6678 4.28111 38.6321 6.79008 37.3498 8.66476Z" fill="#FFBBBC"/>
<path id="Vector_3" d="M19.5768 17.0208L17.008 17.0037C16.1454 16.9986 15.6522 16.0455 16.1531 15.3795L17.6063 13.4501C17.7081 13.3185 17.7751 13.1634 17.8013 12.9991C17.8274 12.8348 17.8118 12.6665 17.7559 12.5098L16.9464 10.324C16.666 9.56744 17.4439 8.73995 18.2851 8.92032L20.7889 9.45631C20.9781 9.49345 21.1731 9.48978 21.3607 9.44556C21.5484 9.40133 21.7245 9.31756 21.8772 9.19985L24.1929 7.43716C25.0478 6.78577 26.3172 7.17558 26.3224 8.12104L26.3386 10.7984C26.3386 11.1763 26.5651 11.5199 26.9421 11.7191L29.7434 13.1988C30.7889 13.7502 30.5701 15.0384 29.3801 15.347L26.201 16.1728C25.7735 16.2831 25.4478 16.5643 25.3239 16.9242L24.4494 19.4563C24.1433 20.3445 22.8055 20.4462 22.1986 19.6538L20.5436 17.4936C20.4288 17.3466 20.2822 17.2277 20.1147 17.1458C19.9472 17.0639 19.7632 17.0211 19.5768 17.0208Z" fill="#FFE6E7"/>
<path id="Vector_4" d="M27.3045 30.2966L25.8325 32.5124L23.6235 28.751L25.1392 26.5327L27.3045 30.2966Z" fill="#FFE6E7"/>
<g id="Group">
<path id="Vector_5" d="M25.1393 26.5327L23.6236 28.7511L20.8822 27.8543C20.1709 27.6218 19.7956 26.8909 20.0418 26.2224C20.288 25.554 21.0677 25.1966 21.7746 25.4317L25.1393 26.5327Z" fill="#F9F9F9"/>
<path id="Vector_6" d="M13.6244 22.8245L18.15 24.288C18.8604 24.5205 19.2365 25.2514 18.9895 25.9199C18.8886 26.1769 18.7119 26.3971 18.4828 26.5512C18.2538 26.7052 17.9832 26.7859 17.7072 26.7825C17.5553 26.7824 17.4044 26.7582 17.2601 26.7107L12.7346 25.2472C12.025 25.0146 11.6489 24.2838 11.896 23.6153C12.143 22.9468 12.9149 22.5894 13.6244 22.8245Z" fill="#F9F9F9"/>
<path id="Vector_7" d="M4.67676 22.5525L9.09203 23.9972C9.23601 24.0448 9.38665 24.069 9.53826 24.069C9.81503 24.0734 10.0865 23.9931 10.3164 23.839C10.5463 23.6848 10.7237 23.4642 10.8248 23.2065C11.0719 22.538 10.6957 21.8071 9.98535 21.5746L6.25138 20.353L4.67676 22.5525Z" fill="#F9F9F9"/>
</g>
<path id="Vector_8" d="M39.6126 8.87935L37.737 5.32832C37.7208 5.29584 37.7037 5.26421 37.6866 5.23172V5.22574C37.4534 4.79621 37.1367 4.41769 36.755 4.11247C36.3732 3.80724 35.9343 3.5815 35.464 3.44852L34.9272 3.28952C34.8996 3.28137 34.8704 3.28032 34.8423 3.28644C34.8142 3.29257 34.7881 3.30568 34.7665 3.32456C34.7357 3.35106 31.648 5.99425 28.3551 4.83764C27.3131 4.47177 26.6155 3.90671 26.2821 3.15787C25.794 2.06452 26.2548 0.935272 26.2599 0.919884C26.2692 0.897716 26.2737 0.873842 26.2731 0.84982C26.2725 0.825798 26.2669 0.802168 26.2565 0.78047C26.2462 0.758773 26.2314 0.739495 26.2132 0.723895C26.1949 0.708294 26.1735 0.696721 26.1505 0.689931L24.4818 0.198395C22.5336 -0.378626 20.3786 0.334315 19.2322 1.93031L6.1129 20.2522L4.53742 22.4526L0.495707 28.0946C0.251479 28.428 0.0914424 28.8154 0.0292266 29.224C-0.0329891 29.6326 0.00445893 30.0501 0.138382 30.4411C0.138382 30.4539 0.147785 30.4668 0.152059 30.4787C0.156333 30.4907 0.152059 30.4847 0.152059 30.4881L1.12658 33.6015C1.48818 34.7555 2.43364 35.6531 3.65607 35.995L6.29241 36.7379C6.3287 36.7491 6.36643 36.7548 6.4044 36.755C6.46081 36.7554 6.5166 36.7432 6.56775 36.7194C6.6189 36.6956 6.66413 36.6608 6.70018 36.6174C7.10024 36.1327 9.26471 33.7699 12.6567 34.8632C12.895 34.9399 13.1282 35.0313 13.3551 35.1368C13.3405 35.2506 13.3185 35.3634 13.2893 35.4744C13.2868 35.4854 13.2851 35.4966 13.2842 35.5078C13.2838 35.5135 13.2838 35.5192 13.2842 35.5249C13.2838 35.53 13.2838 35.5351 13.2842 35.5403C13.2851 35.5495 13.2868 35.5587 13.2893 35.5676C13.2898 35.5699 13.2898 35.5722 13.2893 35.5745C13.2927 35.5845 13.297 35.5942 13.3021 35.6035L15.4735 39.4392C15.5217 39.5222 15.6001 39.5834 15.6923 39.6102L16.1001 39.735C16.6743 39.9107 17.2716 40 17.8721 40C19.7896 40 21.6335 39.0922 22.7174 37.5098L39.4331 12.3509C39.7726 11.8419 39.9685 11.2508 40.0001 10.6398C40.0317 10.0288 39.8978 9.42061 39.6126 8.87935ZM6.31806 20.5548L9.93235 21.7371C10.0817 21.7838 10.2201 21.8605 10.3389 21.9623C10.4578 22.0641 10.5548 22.1891 10.6239 22.3295C10.6857 22.456 10.7211 22.5938 10.728 22.7344C10.7349 22.875 10.7131 23.0156 10.6641 23.1476C10.5752 23.3724 10.4197 23.5648 10.2185 23.6989C10.0174 23.833 9.78002 23.9025 9.53826 23.8981C9.40466 23.898 9.27193 23.8766 9.14503 23.8349L4.95116 22.4628L6.31806 20.5548ZM13.3911 34.7777C13.1864 34.6859 12.9769 34.6051 12.7636 34.5358C9.16384 33.3741 6.86516 35.8822 6.43774 36.3977C6.43135 36.4037 6.42338 36.4078 6.41475 36.4095C6.40611 36.4112 6.39719 36.4103 6.38901 36.4071L3.75096 35.6634C2.63966 35.3496 1.78481 34.5392 1.45484 33.4955L0.84021 31.5293C1.16546 31.8334 1.55663 32.0581 1.98314 32.1859L4.23053 32.8697C4.26456 32.8801 4.30097 32.8795 4.33468 32.8682C4.36838 32.8568 4.39772 32.8353 4.41859 32.8065C4.44082 32.7757 6.70017 29.7401 10.4529 30.9515C13.1414 31.8277 13.4432 33.74 13.3911 34.7777ZM13.7082 35.018C13.8022 33.9537 13.6278 31.6259 10.5581 30.6352C8.47483 29.9624 6.84122 30.536 5.83764 31.1353C5.22197 31.5005 4.67277 31.9676 4.21343 32.5167L2.07632 31.8644C1.70239 31.7582 1.35956 31.5634 1.07684 31.2966C0.794125 31.0298 0.579836 30.6988 0.45211 30.3317C0.337937 29.9924 0.307227 29.6305 0.362583 29.2768C0.417939 28.9231 0.557729 28.5879 0.770112 28.2997L4.74001 22.7543L9.03561 24.1597C9.19703 24.2127 9.36581 24.2398 9.5357 24.2401C9.84737 24.2444 10.1529 24.1534 10.4114 23.9792C10.6699 23.805 10.869 23.556 10.9821 23.2655C11.0473 23.0906 11.0762 22.9042 11.0671 22.7177C11.058 22.5312 11.0111 22.3485 10.9291 22.1807C10.8403 21.9985 10.7153 21.8363 10.5617 21.704C10.4081 21.5717 10.2292 21.4722 10.0358 21.4114L6.52664 20.2599L19.51 2.12949C20.57 0.649753 22.5738 -0.00762286 24.3827 0.526656L25.8709 0.966901C25.7478 1.35757 25.529 2.32354 25.9564 3.29379C26.33 4.13325 27.0994 4.76156 28.2346 5.16077C31.4274 6.28147 34.41 4.04947 34.9118 3.64342L35.3614 3.77678C35.7895 3.89698 36.1892 4.10183 36.5367 4.37919C36.8843 4.65656 37.1727 5.00081 37.3849 5.39158L37.4276 5.47707C37.4837 5.58975 37.533 5.70564 37.5755 5.82413C37.7376 6.27806 37.7889 6.76414 37.7251 7.2419C37.6613 7.71965 37.4843 8.17525 37.2088 8.57075L25.0708 26.3293L21.8275 25.2693C21.0325 25.0086 20.1597 25.4095 19.881 26.1635C19.8161 26.3387 19.7875 26.5253 19.7969 26.7119C19.8063 26.8985 19.8535 27.0813 19.9357 27.2491C20.0246 27.4313 20.1496 27.5935 20.3032 27.7257C20.4568 27.858 20.6357 27.9576 20.8291 28.0185L23.3543 28.8443L20.2281 33.4185C18.898 35.365 16.3343 36.2241 13.9937 35.5095L13.6561 35.4052C13.6714 35.324 13.6885 35.2154 13.7022 35.0838C13.7082 35.0624 13.7102 35.0401 13.7082 35.018ZM24.8699 26.6242L23.5552 28.5519L20.9351 27.6971C20.7851 27.6497 20.6464 27.5721 20.5275 27.4692C20.4086 27.3663 20.312 27.2402 20.2435 27.0987C20.1814 26.9721 20.1457 26.8342 20.1387 26.6934C20.1316 26.5526 20.1533 26.4119 20.2025 26.2797C20.417 25.6967 21.0992 25.3881 21.7215 25.5959L24.8699 26.6242ZM22.4328 37.3209C21.1026 39.2674 18.5389 40.1274 16.1992 39.411L15.7906 39.2853C15.7824 39.2833 15.7751 39.2785 15.7701 39.2717L13.8159 35.8104L13.8937 35.8343C14.4677 36.0098 15.0647 36.0988 15.6649 36.0985C17.5832 36.0985 19.4263 35.1915 20.5102 33.61L23.6124 29.0699L25.6316 32.5064L22.4328 37.3209ZM25.8419 32.1918L23.8261 28.7596L25.1272 26.8559L27.1036 30.2915L25.8419 32.1918ZM39.1527 12.1611L27.3148 29.9718L25.3409 26.5405L37.4909 8.75967C37.902 8.1642 38.1117 7.45271 38.0892 6.72941L39.3074 9.0375C39.5651 9.52387 39.6868 10.0708 39.6596 10.6206C39.6324 11.1704 39.4572 11.7026 39.1527 12.1611Z" fill="#D6585B"/>
<path id="Vector_9" d="M17.0062 17.1747L19.5707 17.1918C19.7306 17.1924 19.8884 17.2292 20.032 17.2995C20.1756 17.3698 20.3014 17.4719 20.3999 17.5979L22.0557 19.7572C22.2051 19.9467 22.3956 20.0996 22.6129 20.2043C22.8302 20.309 23.0686 20.3628 23.3098 20.3616C23.3957 20.3616 23.4814 20.3547 23.5662 20.3411C24.0646 20.2599 24.4527 19.9504 24.604 19.5119L25.4794 16.973C25.5845 16.6661 25.8683 16.4259 26.2376 16.3302L29.4177 15.5052C30.0639 15.3343 30.5059 14.8846 30.5708 14.3247C30.6324 13.8015 30.3503 13.3211 29.8177 13.0424L27.0155 11.5627C26.6967 11.3917 26.5026 11.1062 26.5026 10.7933L26.4864 8.11595C26.4863 7.90034 26.424 7.68934 26.307 7.50828C26.1899 7.32722 26.023 7.18381 25.8265 7.09526C25.2888 6.83112 24.5895 6.91318 24.0851 7.29872L21.7771 9.06568C21.6442 9.16856 21.4909 9.24184 21.3274 9.28062C21.1639 9.31939 20.9939 9.32277 20.829 9.29051L18.3252 8.75452C18.0895 8.70642 17.8453 8.72245 17.6179 8.80094C17.3906 8.87943 17.1885 9.0175 17.0327 9.20075C16.8889 9.35748 16.7903 9.55033 16.7476 9.7587C16.7048 9.96708 16.7194 10.1831 16.7899 10.3839L17.5969 12.5663C17.6434 12.6965 17.6563 12.8364 17.6345 12.9729C17.6127 13.1095 17.5568 13.2383 17.4721 13.3476L16.0188 15.2761C15.8858 15.447 15.804 15.6521 15.7832 15.8677C15.7623 16.0832 15.8031 16.3002 15.9008 16.4934C16.0031 16.6989 16.1608 16.8716 16.3561 16.9921C16.5515 17.1125 16.7767 17.1758 17.0062 17.1747ZM16.2889 15.4839L17.7422 13.5553C17.8615 13.4003 17.9398 13.2176 17.9697 13.0242C17.9996 12.8308 17.9801 12.633 17.9132 12.4492L17.1036 10.2633C17.0548 10.12 17.0458 9.9662 17.0776 9.81821C17.1093 9.67022 17.1807 9.53363 17.284 9.42301C17.3996 9.28592 17.55 9.18241 17.7193 9.12331C17.8886 9.06421 18.0707 9.05169 18.2465 9.08705L20.7504 9.62304C20.9636 9.66567 21.1836 9.66209 21.3953 9.61254C21.6071 9.56299 21.8057 9.46863 21.9779 9.33581L24.286 7.56885C24.4793 7.41739 24.7102 7.32145 24.9539 7.29133C25.1975 7.26121 25.4448 7.29804 25.6692 7.39788C25.8082 7.45878 25.9267 7.55854 26.0104 7.68517C26.0941 7.81179 26.1395 7.95989 26.141 8.11167L26.1573 10.789C26.1573 11.231 26.4197 11.6319 26.8514 11.8602L29.6639 13.3425C30.0673 13.5553 30.2811 13.9075 30.2375 14.2828C30.1887 14.7 29.8442 15.0411 29.3373 15.1727L26.159 15.9993C25.6786 16.1241 25.3041 16.4464 25.1631 16.861L24.2835 19.405C24.1723 19.7265 23.8919 19.9462 23.5141 20.0077C23.2942 20.0445 23.0685 20.0219 22.8603 19.942C22.6521 19.8622 22.4691 19.7282 22.3301 19.5538L20.6752 17.3944C20.5454 17.2262 20.3791 17.0897 20.1888 16.9954C19.9984 16.901 19.7891 16.8513 19.5767 16.8499L17.0121 16.8328C16.8466 16.8336 16.684 16.788 16.543 16.7013C16.4019 16.6146 16.2878 16.4902 16.2137 16.3421C16.1439 16.2066 16.1139 16.054 16.1272 15.9021C16.1405 15.7502 16.1966 15.6052 16.2889 15.4839Z" fill="#D6585B"/>
<path id="Vector_10" d="M17.7037 26.9508C18.0151 26.9548 18.3202 26.8637 18.5785 26.6898C18.8368 26.5158 19.0359 26.2672 19.1492 25.9772C19.2145 25.8019 19.2434 25.6152 19.2341 25.4284C19.2249 25.2416 19.1777 25.0586 19.0954 24.8907C19.0065 24.7085 18.8815 24.5463 18.7279 24.414C18.5743 24.2818 18.3954 24.1822 18.2021 24.1213L13.6782 22.6587C12.8832 22.4022 12.0104 22.7997 11.7326 23.5528C11.6673 23.7281 11.6384 23.9148 11.6477 24.1016C11.6569 24.2884 11.7042 24.4714 11.7864 24.6393C11.8753 24.8215 12.0003 24.9837 12.1539 25.116C12.3075 25.2482 12.4864 25.3478 12.6798 25.4087L17.2044 26.8722C17.3657 26.9246 17.5342 26.9512 17.7037 26.9508ZM12.0933 24.4897C12.0312 24.3633 11.9956 24.2256 11.9885 24.0849C11.9815 23.9443 12.0032 23.8036 12.0523 23.6716C12.1414 23.4469 12.2969 23.2547 12.498 23.1206C12.6992 22.9865 12.9364 22.9169 13.1781 22.9211C13.3117 22.9211 13.4445 22.9425 13.5714 22.9843L18.0969 24.4487C18.2464 24.4953 18.3847 24.5719 18.5036 24.6738C18.6225 24.7756 18.7195 24.9006 18.7885 25.0411C18.8506 25.1675 18.8862 25.3053 18.8933 25.4459C18.9003 25.5866 18.8786 25.7272 18.8295 25.8592C18.7404 26.0839 18.5849 26.2761 18.3838 26.4102C18.1826 26.5443 17.9454 26.6139 17.7037 26.6097C17.5698 26.6097 17.4368 26.5883 17.3096 26.5465L12.7849 25.083C12.6353 25.0364 12.4968 24.9597 12.3779 24.8577C12.259 24.7557 12.1622 24.6305 12.0933 24.4897Z" fill="#D6585B"/>
</g>
</g>
</g>
</svg>
