<svg width="30" height="31" viewBox="0 0 30 31" fill="none" xmlns="http://www.w3.org/2000/svg">
<g id="Group 34930">
<g id="Group 19 Copy 4">
<g id="instagram (5)">
<path id="Shape" fill-rule="evenodd" clip-rule="evenodd" d="M9.1838 0H20.2044C25.2757 0 29.3882 4.25085 29.3882 9.49274V20.884C29.3882 26.1259 25.2757 30.3768 20.2044 30.3768H9.1838C4.11251 30.3768 0 26.1259 0 20.884V9.49274C0 4.25085 4.11251 0 9.1838 0ZM20.2034 27.5277C23.7484 27.5277 26.6321 24.547 26.6321 20.8828V9.4915C26.6321 5.82731 23.7484 2.84659 20.2034 2.84659H9.18285C5.6379 2.84659 2.75419 5.82731 2.75419 9.4915V20.8828C2.75419 24.547 5.6379 27.5277 9.18285 27.5277H20.2034Z" fill="#FF4444"/>
<path id="Shape_2" fill-rule="evenodd" clip-rule="evenodd" d="M7.34702 15.1882C7.34702 10.9943 10.6367 7.59399 14.6941 7.59399C18.7515 7.59399 22.0411 10.9943 22.0411 15.1882C22.0411 19.3821 18.7515 22.7824 14.6941 22.7824C10.6367 22.7824 7.34702 19.3821 7.34702 15.1882ZM10.1012 15.187C10.1012 17.8032 12.1621 19.9334 14.6931 19.9334C17.2242 19.9334 19.285 17.8032 19.285 15.187C19.285 12.5689 17.2242 10.4407 14.6931 10.4407C12.1621 10.4407 10.1012 12.5689 10.1012 15.187Z" fill="#FF4444"/>
<ellipse id="Oval" cx="22.5936" cy="7.02438" rx="0.978993" ry="1.01193" fill="#FF4444"/>
</g>
</g>
</g>
</svg>
