<svg width="24" height="24" viewBox="0 0 24 24" fill="none" xmlns="http://www.w3.org/2000/svg">
<g id="Bold / Security / Lock Unlocked">
<path id="Vector" d="M6.75 8C6.75 5.10051 9.01586 1.56304 11.9154 1.56304C14.3606 1.56304 16.4172 3.23546 17 5.49998C17.1032 5.90112 17.5121 6.14261 17.9133 6.03937C18.3144 5.93612 18.5559 5.52724 18.4527 5.1261C17.7034 2.21494 15.0616 0.0630407 11.9154 0.0630407C8.18743 0.0630407 5.25 4.27208 5.25 8V10.0546C4.13525 10.1379 3.40931 10.3481 2.87868 10.8787C2 11.7574 2 13.1716 2 16C2 18.8284 2 20.2427 2.87868 21.1213C3.75736 22 5.17157 22 8 22H16C18.8284 22 20.2426 22 21.1213 21.1213C22 20.2427 22 18.8284 22 16C22 13.1716 22 11.7574 21.1213 10.8787C20.2426 10 18.8284 10 16 10H8C7.54849 10 7.13301 10 6.75 10.0036V8Z" fill="black"/>
</g>
</svg>
