<svg width="31" height="40" viewBox="0 0 31 40" fill="none" xmlns="http://www.w3.org/2000/svg">
<g id="Group 1000000795">
<g id="Group 1000000794">
<g id="Calque 2">
<g id="11- Live">
<path id="Vector" d="M29.314 35.4371C29.314 37.8631 25.0225 39.8289 19.7285 39.8289C14.4345 39.8289 10.1431 37.8631 10.1431 35.4376C10.1431 34.8879 10.3636 34.3614 10.767 33.8768C12.1396 32.2212 15.6345 31.0452 19.7285 31.0452C23.8225 31.0452 27.3174 32.2212 28.6901 33.8768C29.0935 34.361 29.314 34.8875 29.314 35.4371Z" fill="#FFE6E7"/>
<path id="Vector_2" d="M28.6899 33.8765C27.3164 35.5312 23.8215 36.7065 19.7284 36.7065C15.6352 36.7065 12.1403 35.5312 10.7668 33.8765C12.1395 32.221 15.6344 31.0449 19.7284 31.0449C23.8224 31.0449 27.3173 32.221 28.6899 33.8765Z" fill="#F78587"/>
<path id="Vector_3" d="M16.5081 34.5825V27.6594L22.9488 27.9573V34.5825C22.9488 34.5825 19.9429 35.8762 16.5081 34.5825Z" fill="#FFE6E7"/>
<path id="Vector_4" d="M19.6069 0.170915C15.7727 0.21553 12.6248 3.18356 12.5758 6.80014L12.4195 18.3359C12.3705 21.9524 15.4389 24.8482 19.2731 24.8036C23.1073 24.7591 26.2552 21.791 26.3042 18.1744L26.4606 6.63878C26.5096 3.0222 23.4411 0.126471 19.6069 0.170915Z" fill="#FFE6E7"/>
<path id="Vector_5" d="M7.95359 18.8296C7.87299 24.9445 12.9216 29.8405 19.2302 29.7651C25.5387 29.6897 30.7179 24.6715 30.7989 18.5566C29.125 16.0881 27.4277 18.5566 27.4277 18.5566C27.3708 22.8604 23.7199 26.6529 19.2732 26.706C14.8264 26.7591 11.2669 22.8604 11.3238 18.5566C11.3238 18.5566 9.3429 15.8847 7.95359 18.8296Z" fill="#F78587"/>
<path id="Vector_6" d="M29.3137 14.7403C29.3137 17.25 25.022 19.2852 19.728 19.2852C14.434 19.2852 10.1431 17.25 10.1431 14.7403C10.1431 13.5954 11.0357 12.5504 12.5085 11.7515L12.4814 13.7534C14.2381 14.7148 16.8333 15.3232 19.728 15.3232C22.3015 15.3232 24.6378 14.8428 26.36 14.0601L26.3952 11.4753C28.1947 12.3011 29.3137 13.459 29.3137 14.7403Z" fill="#FFBBBC"/>
<path id="Vector_7" d="M17.6241 28.2358H3.77705C1.78543 28.2358 0.170898 29.8504 0.170898 31.842V31.8421C0.170898 33.8337 1.78543 35.4482 3.77705 35.4482H17.6241C19.6157 35.4482 21.2302 33.8337 21.2302 31.8421V31.842C21.2302 29.8504 19.6157 28.2358 17.6241 28.2358Z" fill="white"/>
<g id="Group">
<path id="Vector_8" d="M6.15139 29.2759C6.24918 29.2767 6.34482 29.3047 6.42761 29.3567C6.5104 29.4088 6.57708 29.4828 6.62019 29.5706C6.6553 29.6461 6.67358 29.7283 6.67378 29.8116V33.0863L8.51865 33.0428C8.65434 33.0511 8.78177 33.1108 8.87507 33.2097C8.96836 33.3086 9.02052 33.4392 9.02096 33.5752C9.02015 33.6645 8.99629 33.7521 8.9517 33.8295C8.90711 33.907 8.8433 33.9715 8.76643 34.0171C8.69948 34.0706 8.5533 34.0974 8.32788 34.0974C7.03541 34.1287 6.30657 34.1443 6.14139 34.1443C6.04991 34.1435 5.96026 34.1186 5.88148 34.0721C5.8027 34.0256 5.73758 33.9591 5.69267 33.8794C5.6458 33.7967 5.62157 33.7031 5.62241 33.6081V29.8119C5.62032 29.7049 5.65094 29.5998 5.71016 29.5107C5.76939 29.4215 5.85441 29.3526 5.95387 29.3131C6.01721 29.2899 6.08395 29.2773 6.15139 29.2759Z" fill="#D6585B"/>
<path id="Vector_9" d="M10.3235 29.3296C10.5154 29.3296 10.6717 29.4289 10.7923 29.6276C10.8265 29.7058 10.8447 29.7901 10.8458 29.8755V33.6055C10.8477 33.7086 10.8191 33.8099 10.7638 33.8968C10.7084 33.9838 10.6286 34.0525 10.5344 34.0944C10.4654 34.1273 10.3899 34.1445 10.3135 34.1446C10.222 34.1438 10.1323 34.1189 10.0536 34.0724C9.97479 34.0258 9.90967 33.9594 9.86476 33.8797C9.8179 33.797 9.79366 33.7034 9.79451 33.6084V29.8648C9.79273 29.7583 9.82351 29.6537 9.88273 29.5651C9.94196 29.4765 10.0268 29.4081 10.126 29.3691C10.1889 29.3442 10.2558 29.3309 10.3235 29.3296Z" fill="#D6585B"/>
<path id="Vector_10" d="M12.1751 29.2893H12.2019C12.2943 29.2913 12.3845 29.3178 12.4633 29.366C12.5422 29.4142 12.6068 29.4825 12.6506 29.5638C12.6796 29.6063 12.7287 29.7928 12.798 30.1231C12.9898 30.9423 13.1907 31.7023 13.4006 32.4032H13.404C13.4174 32.3899 13.4854 32.1845 13.6082 31.7872C13.7801 31.2516 13.9787 30.5573 14.2042 29.7045C14.257 29.5784 14.3516 29.4743 14.4721 29.4098C14.5394 29.3788 14.6123 29.3617 14.6864 29.3596H14.7132C14.894 29.3596 15.0447 29.4534 15.1652 29.6408C15.2025 29.7122 15.2231 29.7911 15.2255 29.8716V29.8985C15.2255 29.9654 15.1474 30.2745 14.9911 30.8259C14.6094 32.2167 14.2857 33.1711 14.0201 33.6891C13.8435 33.9927 13.6381 34.1445 13.404 34.1445H13.3671C13.1439 34.1445 12.9497 34.0072 12.7846 33.7326C12.5702 33.3375 12.3113 32.5316 12.0077 31.3151C11.8336 30.6276 11.7186 30.1387 11.6628 29.8485V29.7983C11.6628 29.6198 11.7566 29.4692 11.9441 29.3463C12.0161 29.3109 12.0949 29.2914 12.1751 29.2893Z" fill="#D6585B"/>
<path id="Vector_11" d="M18.5334 29.2727C18.6688 29.2786 18.7967 29.3365 18.8903 29.4345C18.9839 29.5325 19.036 29.6628 19.0357 29.7983C19.0357 29.8959 19.0084 29.9915 18.9569 30.0743C18.9055 30.1572 18.8318 30.224 18.7444 30.2671C18.6931 30.3096 18.5056 30.3308 18.1819 30.3307L17.0602 30.3508L17.0401 31.2448H17.0434C17.4385 31.2404 17.7332 31.2382 17.9275 31.2382C18.0276 31.2378 18.1259 31.2656 18.2111 31.3182C18.2964 31.3709 18.3651 31.4464 18.4096 31.5362C18.443 31.6087 18.4612 31.6872 18.4631 31.767C18.4619 31.8591 18.4365 31.9494 18.3895 32.0287C18.3425 32.108 18.2756 32.1736 18.1953 32.2189C18.1105 32.2664 18.0146 32.2907 17.9174 32.2893C17.7298 32.2893 17.4274 32.2904 17.0099 32.2927L17.0066 32.3094L16.9895 33.0394L16.9862 33.0695C17.9706 33.0271 18.493 33.0059 18.5532 33.0059C18.6446 33.0066 18.7342 33.0315 18.813 33.078C18.8918 33.1244 18.9569 33.1908 19.0019 33.2704C19.0368 33.3307 19.0593 33.3973 19.0681 33.4664C19.0769 33.5354 19.0717 33.6056 19.053 33.6727C19.0343 33.7397 19.0024 33.8024 18.9591 33.8569C18.9158 33.9115 18.862 33.9568 18.801 33.9903C18.7295 34.0394 18.5654 34.0639 18.3087 34.0639C18.2775 34.0662 17.6524 34.093 16.4337 34.1443C16.2971 34.1377 16.1681 34.0793 16.073 33.9811C15.9778 33.8828 15.9236 33.752 15.9214 33.6153C15.9884 31.0483 16.0252 29.7647 16.0319 29.7647C16.0489 29.6568 16.0979 29.5565 16.1726 29.4767C16.2386 29.4056 16.3233 29.3545 16.4169 29.3294C16.4817 29.3071 16.792 29.2959 17.3478 29.2959C17.3836 29.2939 17.7789 29.2862 18.5334 29.2727Z" fill="#D6585B"/>
</g>
<path id="Vector_12" d="M2.9795 33.3557C3.81547 33.3557 4.49317 32.678 4.49317 31.842C4.49317 31.0061 3.81547 30.3284 2.9795 30.3284C2.14352 30.3284 1.46582 31.0061 1.46582 31.842C1.46582 32.678 2.14352 33.3557 2.9795 33.3557Z" fill="#D6585B"/>
<path id="Vector_13" d="M27.6144 32.736C26.4776 32.0095 24.9253 31.4651 23.1186 31.1558V29.2473C27.6754 27.6399 30.9049 23.4148 30.9691 18.5592C30.9696 18.5243 30.9593 18.49 30.9396 18.461C30.4137 17.6852 29.8236 17.2907 29.1855 17.2886H29.1804C28.1041 17.2886 27.3193 18.4122 27.2863 18.4602C27.2672 18.488 27.2567 18.5209 27.2562 18.5547C27.2002 22.8294 23.5432 26.4838 19.2704 26.5347C17.261 26.5624 15.3374 25.7564 13.8587 24.2757C12.3288 22.7432 11.4667 20.6597 11.4947 18.5592C11.4952 18.5218 11.4834 18.4852 11.4611 18.4551C11.4223 18.4028 10.4988 17.1739 9.40641 17.2821C8.77154 17.3448 8.23042 17.8409 7.79829 18.7567C7.78784 18.7788 7.78225 18.8029 7.78188 18.8273C7.75389 20.7872 8.26072 22.7175 9.24786 24.4108C10.1123 25.8816 11.3055 27.1323 12.7339 28.065H3.77709C2.77535 28.065 1.81463 28.463 1.10628 29.1713C0.397943 29.8797 0 30.8404 0 31.8421C0 32.8439 0.397943 33.8046 1.10628 34.5129C1.81463 35.2213 2.77535 35.6192 3.77709 35.6192H9.98017C10.076 36.7956 11.0998 37.8848 12.8871 38.7017C14.7184 39.5385 17.148 40.0001 19.7285 40.0001C22.313 40.0001 24.7455 39.5379 26.5776 38.6985C28.4524 37.8396 29.4849 36.6814 29.4849 35.4378C29.4849 34.4517 28.8381 33.5176 27.6144 32.736ZM8.12376 18.8691C8.49752 18.0914 8.94017 17.6726 9.43957 17.6224C10.2353 17.5428 10.9859 18.4087 11.1527 18.6153C11.1408 20.7867 12.0369 22.9347 13.6173 24.5173C15.1617 26.0643 17.1728 26.8993 19.275 26.8762C23.7102 26.8234 27.509 23.0456 27.5977 18.6137C27.7403 18.4248 28.3879 17.6302 29.1808 17.6302H29.1861C29.6925 17.6324 30.177 17.9615 30.6267 18.6084C30.5408 23.328 27.3703 27.4251 22.9153 28.9556C22.901 28.9586 22.8872 28.9633 22.8741 28.9698C22.1301 29.2221 21.3628 29.3993 20.5835 29.4987C20.2305 29.0518 19.7808 28.6906 19.2682 28.4423C18.7556 28.194 18.1935 28.065 17.6239 28.065H13.3809C10.0491 26.1118 8.08649 22.6797 8.12376 18.8691ZM22.7772 29.3619V34.4661C21.7935 34.8127 20.7578 34.9885 19.7149 34.9859C20.5389 34.4394 21.1152 33.5911 21.3198 32.6238C21.5243 31.6564 21.3406 30.6474 20.8082 29.8142C21.476 29.7186 22.1346 29.5673 22.7772 29.3619ZM3.77718 35.2773C2.8661 35.2773 1.99234 34.9154 1.34812 34.2712C0.703889 33.627 0.341966 32.7532 0.341966 31.8421C0.341966 30.9311 0.703889 30.0573 1.34812 29.4131C1.99234 28.7688 2.8661 28.4069 3.77718 28.4069H17.6239C18.535 28.4069 19.4088 28.7688 20.053 29.4131C20.6972 30.0573 21.0591 30.9311 21.0591 31.8421C21.0591 32.7532 20.6972 33.627 20.053 34.2712C19.4088 34.9154 18.535 35.2773 17.6239 35.2773H3.77718ZM19.7285 39.6582C14.6779 39.6582 10.537 37.862 10.3233 35.6196H12.9956C14.8061 36.4103 17.1761 36.8462 19.6752 36.8462C22.5754 36.8462 25.3016 36.2565 27.1548 35.2273C27.1744 35.2164 27.1917 35.2017 27.2057 35.1841C27.2197 35.1665 27.2301 35.1464 27.2362 35.1248C27.2424 35.1032 27.2443 35.0806 27.2417 35.0582C27.2392 35.0359 27.2323 35.0143 27.2214 34.9947C27.2105 34.975 27.1958 34.9577 27.1782 34.9438C27.1606 34.9298 27.1405 34.9194 27.1189 34.9132C27.0973 34.9071 27.0747 34.9052 27.0524 34.9077C27.03 34.9103 27.0084 34.9172 26.9888 34.9281C25.1849 35.9296 22.5187 36.5041 19.6752 36.5041C17.5777 36.5041 15.5776 36.1922 13.9361 35.6193H17.6239C18.1384 35.6197 18.6475 35.5144 19.1197 35.3099C19.3223 35.3223 19.5203 35.3286 19.712 35.3286C21.623 35.3286 22.9541 34.7661 23.0155 34.7396C23.0462 34.7264 23.0723 34.7045 23.0907 34.6767C23.1091 34.6488 23.1189 34.6161 23.1189 34.5827V31.5027C26.7303 32.1335 29.1428 33.7021 29.1428 35.4373C29.143 37.7645 24.9196 39.6582 19.7285 39.6582Z" fill="#D6585B"/>
<path id="Vector_14" d="M12.2553 17.7844L12.2478 18.3333C12.2362 19.1863 12.3967 20.0328 12.7199 20.8223C13.0431 21.6117 13.5223 22.3278 14.1287 22.9277C15.4489 24.2503 17.241 24.9756 19.1839 24.9755C19.214 24.9755 19.2444 24.9755 19.2746 24.975C23.1942 24.9296 26.4244 21.8801 26.4752 18.1773V18.1554C26.5093 18.1396 26.5449 18.1246 26.5787 18.1086C28.4522 17.2202 29.484 16.0241 29.484 14.7405C29.484 13.451 28.4489 12.2563 26.567 11.3678L26.6312 6.64129C26.6429 5.7883 26.4823 4.94173 26.1591 4.15227C25.8358 3.36282 25.3566 2.64671 24.75 2.04685C23.4102 0.70386 21.5811 -0.0204986 19.6051 0.000441608C15.6854 0.0459117 12.4553 3.09531 12.4045 6.79813L12.3389 11.6503C10.812 12.5021 9.97217 13.5967 9.97217 14.7404C9.97217 15.8739 10.7772 16.939 12.2553 17.7844ZM19.2709 24.6329C17.3844 24.655 15.6459 23.9633 14.371 22.686C13.7968 22.1183 13.3431 21.4406 13.0371 20.6935C12.731 19.9463 12.5788 19.1451 12.5897 18.3378L12.5946 17.9685C12.6866 18.0158 12.7803 18.0625 12.8766 18.1084C14.7093 18.9775 17.1424 19.4562 19.7275 19.4562C22.1064 19.4562 24.3553 19.05 26.1275 18.308C26.0035 21.7654 22.9585 24.5903 19.2709 24.6329ZM12.7464 6.80283C12.7948 3.28377 15.8732 0.385655 19.6091 0.342322C21.4959 0.318048 23.2337 1.01113 24.5087 2.2883C25.0829 2.85595 25.5366 3.53365 25.8427 4.28082C26.1488 5.02798 26.3009 5.82924 26.2899 6.63659L26.1906 13.9473C24.4325 14.7243 22.1438 15.1524 19.7281 15.1524C17.0187 15.1524 14.4488 14.6054 12.6538 13.6504L12.7464 6.80283ZM12.3335 12.0473L12.3105 13.7512C12.3105 13.7541 12.3111 13.7568 12.3112 13.7598C12.3114 13.7657 12.312 13.7716 12.3128 13.7774C12.3135 13.783 12.3146 13.7885 12.3159 13.7939C12.3172 13.7991 12.3187 13.804 12.3204 13.8091C12.3221 13.8141 12.3244 13.8199 12.3269 13.8251C12.3293 13.8304 12.3315 13.8345 12.334 13.839C12.3366 13.8435 12.34 13.8487 12.3434 13.8533C12.3467 13.858 12.3498 13.8619 12.3533 13.8657C12.3571 13.87 12.3612 13.8742 12.3654 13.8782C12.3691 13.8816 12.3729 13.8849 12.377 13.888C12.3821 13.892 12.3874 13.8956 12.3929 13.899C12.3952 13.9004 12.397 13.9021 12.3993 13.9033C14.2466 14.9144 16.9178 15.4942 19.7281 15.4942C22.2336 15.4942 24.6115 15.0412 26.4248 14.2184L26.4275 14.2173L26.4308 14.2158C26.4334 14.2146 26.4357 14.2128 26.4383 14.2115C26.4451 14.208 26.4517 14.2042 26.4581 14.1999C26.4618 14.1973 26.4652 14.1943 26.4686 14.1914C26.4736 14.1874 26.4784 14.1831 26.483 14.1786C26.4863 14.1751 26.4892 14.1713 26.4922 14.1676C26.4952 14.1639 26.5 14.158 26.5034 14.1527C26.5059 14.1488 26.5079 14.1447 26.5101 14.1407C26.5133 14.1352 26.5161 14.1294 26.5187 14.1236C26.5205 14.1192 26.5217 14.1151 26.523 14.1102C26.525 14.1043 26.5266 14.0983 26.5278 14.0922C26.5287 14.0867 26.5294 14.0812 26.5297 14.0756C26.5297 14.0713 26.5311 14.067 26.5312 14.0627L26.5627 11.7446C28.2293 12.5641 29.1429 13.6217 29.1429 14.7404C29.1429 15.9697 28.0454 17.0823 26.2822 17.8772C26.2512 17.8817 26.222 17.8948 26.198 17.9149C24.5098 18.6579 22.2317 19.1143 19.7279 19.1143C16.8561 19.1143 14.2808 18.5135 12.5526 17.5684C12.5277 17.5414 12.4947 17.5233 12.4586 17.5166C11.1191 16.7609 10.3133 15.7935 10.3133 14.7404C10.314 13.768 11.0287 12.819 12.3333 12.0473H12.3335Z" fill="#D6585B"/>
</g>
</g>
</g>
</g>
</svg>
