<svg width="36" height="36" viewBox="0 0 36 36" fill="none" xmlns="http://www.w3.org/2000/svg">
<g id="time / timer">
<path id="Vector" d="M22.5 21.75L23.4 22.5V22.5C25.8908 24.5757 27.1362 25.6135 27.5517 26.4018C28.7883 28.7481 27.7378 31.6496 25.2858 32.6604C24.4619 33 22.8408 33 19.5985 33H18C13.4424 33 11.1636 33 10.0835 32.3403C8.28639 31.2425 7.49088 29.0453 8.16872 27.0515C8.57611 25.8532 10.3267 24.3944 13.828 21.4767L22.172 14.5233C25.6733 11.6056 27.4239 10.1468 27.8313 8.94848C28.5091 6.9547 27.7136 4.75746 25.9165 3.65974C24.8364 3 22.5576 3 18 3H16.4015C13.1592 3 11.5381 3 10.7142 3.33962C8.26215 4.35042 7.21168 7.25188 8.44831 9.59817C8.86381 10.3865 10.1092 11.4243 12.6 13.5V13.5L13.5 14.25" stroke="url(#paint0_linear_1748_601)" stroke-width="2.25" stroke-linecap="round" stroke-linejoin="round"/>
</g>
<defs>
<linearGradient id="paint0_linear_1748_601" x1="1.13435e-07" y1="6.00001" x2="36.1347" y2="6.24633" gradientUnits="userSpaceOnUse">
<stop stop-color="#4B2828"/>
<stop offset="1" stop-color="#E0696C"/>
</linearGradient>
</defs>
</svg>
