<svg width="37" height="27" viewBox="0 0 37 27" fill="none" xmlns="http://www.w3.org/2000/svg">
<g id="Video 1">
<path id="Vector" d="M25.8886 6.88777C26.2083 8.37663 26.2083 10.3715 26.2083 13.5C26.2083 16.6275 26.2083 18.6222 25.8889 20.1109M25.8886 6.88777C25.7671 6.32209 25.5995 5.82945 25.3682 5.37545C24.6291 3.92503 23.4499 2.74581 21.9995 2.00678C20.3506 1.16663 18.1921 1.16663 13.875 1.16663C9.55792 1.16663 7.39938 1.16663 5.75048 2.00678C4.30006 2.74581 3.12084 3.92503 2.38181 5.37545C1.54166 7.02435 1.54166 9.18289 1.54166 13.5C1.54166 17.817 1.54166 19.9756 2.38181 21.6245C3.12084 23.0749 4.30006 24.2541 5.75048 24.9931C7.39938 25.8333 9.55792 25.8333 13.875 25.8333C18.1921 25.8333 20.3506 25.8333 21.9995 24.9931C23.4499 24.2541 24.6291 23.0749 25.3682 21.6245C25.5997 21.1701 25.7674 20.6771 25.8889 20.1109M25.8886 6.88777L26.2083 6.75017L26.8225 6.4818C30.7196 4.77893 32.6681 3.92749 34.0632 4.84035C35.4583 5.75321 35.4583 7.87966 35.4583 12.1326V14.8674C35.4583 19.1203 35.4583 21.2467 34.0632 22.1596C32.6681 23.0724 30.7196 22.221 26.8225 20.5181L26.2083 20.2497L25.8889 20.1109M9.24999 13.5C9.24999 10.7469 9.24999 9.37038 9.79236 8.57462C10.2654 7.88054 10.9926 7.43302 11.793 7.34334C12.7107 7.24053 13.8291 7.92879 16.0658 9.30532C18.3025 10.6818 19.4208 11.3701 19.7961 12.2687C20.1235 13.0524 20.1235 13.9475 19.7961 14.7312C19.4208 15.6298 18.3025 16.3181 16.0658 17.6946C13.8291 19.0711 12.7107 19.7594 11.793 19.6566C10.9926 19.5669 10.2654 19.1194 9.79236 18.4253C9.24999 17.6295 9.24999 16.253 9.24999 13.5Z" stroke="url(#paint0_linear_786_301)" stroke-width="1.5"/>
</g>
<defs>
<linearGradient id="paint0_linear_786_301" x1="18.5" y1="1.16663" x2="18.5" y2="25.8333" gradientUnits="userSpaceOnUse">
<stop stop-color="#FC464A"/>
<stop offset="1" stop-color="#A9A9A9" stop-opacity="0.86"/>
</linearGradient>
</defs>
</svg>
